# xmcd
#
# Track frame offsets:
#	150
#	12732
#	24108
#	39531
#	53736
#	67535
#	81834
#	96611
#	108927
#	123708
#	137932
#
# Disc length: 2027 seconds
#
# Revision: 1
# Processed by: cddbd v1.4PL0 Copyright (c) Steve Scherf et al.
# Submitted via: audiograbber 1.82.02
#
DISCID=9007e90b
DTITLE=Patricia Nohva - Country Memories Vol 1
DYEAR=2003
DGENRE=
TTITLE0=Le gout de te retrouver
TTITLE1=Diggy liggy li
TTITLE2=Blue roses
TTITLE3=Ce n'est qu'un reve
TTITLE4=Un jour a la fois
TTITLE5=J'ai un amour qui ne veut pas mourir
TTITLE6=Boot scootin' boogie
TTITLE7=Crazy
TTITLE8=Guys do it all the time
TTITLE9=Emotional girl
TTITLE10=Let's go to Vegas
EXTD=
EXTT0=
EXTT1=
EXTT2=
EXTT3=
EXTT4=
EXTT5=
EXTT6=
EXTT7=
EXTT8=
EXTT9=
EXTT10=
PLAYORDER=
